<svg width="266" height="78" viewBox="0 0 266 78" fill="none" xmlns="http://www.w3.org/2000/svg">
<path d="M38.6875 59H37V36.4375H7.9375V59H6.25V13.5H7.9375V34.75H37V13.5H38.6875V59ZM53.5938 13.5L72.3125 56.5312L91.0938 13.5H93.5625V59H91.875V16L73 59H71.6562L52.875 16.2188V59H51.1875V13.5H53.5938ZM131.062 36.625H107.75V59H106.062V13.5H134.25V15.1875H107.75V34.875H131.062V36.625Z" fill="black"/>
<path d="M175.188 44.5625C174.625 49.375 172.844 53.0938 169.844 55.7188C166.865 58.3229 162.896 59.625 157.938 59.625C152.562 59.625 148.25 57.6979 145 53.8438C141.771 49.9896 140.156 44.8333 140.156 38.375V34C140.156 29.7708 140.906 26.0521 142.406 22.8438C143.927 19.6354 146.073 17.1771 148.844 15.4688C151.615 13.7396 154.823 12.875 158.469 12.875C163.302 12.875 167.177 14.2292 170.094 16.9375C173.01 19.625 174.708 23.3542 175.188 28.125H169.156C168.635 24.5 167.5 21.875 165.75 20.25C164.021 18.625 161.594 17.8125 158.469 17.8125C154.635 17.8125 151.625 19.2292 149.438 22.0625C147.271 24.8958 146.188 28.9271 146.188 34.1562V38.5625C146.188 43.5 147.219 47.4271 149.281 50.3438C151.344 53.2604 154.229 54.7188 157.938 54.7188C161.271 54.7188 163.823 53.9688 165.594 52.4688C167.385 50.9479 168.573 48.3125 169.156 44.5625H175.188ZM180.969 41.7812C180.969 38.4688 181.615 35.4896 182.906 32.8438C184.219 30.1979 186.031 28.1562 188.344 26.7188C190.677 25.2812 193.333 24.5625 196.312 24.5625C200.917 24.5625 204.635 26.1562 207.469 29.3438C210.323 32.5312 211.75 36.7708 211.75 42.0625V42.4688C211.75 45.7604 211.115 48.7188 209.844 51.3438C208.594 53.9479 206.792 55.9792 204.438 57.4375C202.104 58.8958 199.417 59.625 196.375 59.625C191.792 59.625 188.073 58.0312 185.219 54.8438C182.385 51.6562 180.969 47.4375 180.969 42.1875V41.7812ZM186.781 42.4688C186.781 46.2188 187.646 49.2292 189.375 51.5C191.125 53.7708 193.458 54.9062 196.375 54.9062C199.312 54.9062 201.646 53.7604 203.375 51.4688C205.104 49.1562 205.969 45.9271 205.969 41.7812C205.969 38.0729 205.083 35.0729 203.312 32.7812C201.562 30.4688 199.229 29.3125 196.312 29.3125C193.458 29.3125 191.156 30.4479 189.406 32.7188C187.656 34.9896 186.781 38.2396 186.781 42.4688ZM225.281 59H219.5V25.1875H225.281V59ZM219.031 16.2188C219.031 15.2812 219.312 14.4896 219.875 13.8438C220.458 13.1979 221.312 12.875 222.438 12.875C223.562 12.875 224.417 13.1979 225 13.8438C225.583 14.4896 225.875 15.2812 225.875 16.2188C225.875 17.1562 225.583 17.9375 225 18.5625C224.417 19.1875 223.562 19.5 222.438 19.5C221.312 19.5 220.458 19.1875 219.875 18.5625C219.312 17.9375 219.031 17.1562 219.031 16.2188ZM240.031 25.1875L240.219 29.4375C242.802 26.1875 246.177 24.5625 250.344 24.5625C257.49 24.5625 261.094 28.5938 261.156 36.6562V59H255.375V36.625C255.354 34.1875 254.792 32.3854 253.688 31.2188C252.604 30.0521 250.906 29.4688 248.594 29.4688C246.719 29.4688 245.073 29.9688 243.656 30.9688C242.24 31.9688 241.135 33.2812 240.344 34.9062V59H234.562V25.1875H240.031Z" fill="#1D3557"/>
<path d="M7.87988 68.8545C8.14876 68.4124 8.49284 68.0706 8.91211 67.8291C9.33138 67.5876 9.78939 67.4668 10.2861 67.4668C11.0791 67.4668 11.6693 67.6901 12.0566 68.1367C12.444 68.5833 12.64 69.2533 12.6445 70.1465V75H11.8311V70.1396C11.8265 69.4788 11.6852 68.9867 11.4072 68.6631C11.1338 68.3395 10.694 68.1777 10.0879 68.1777C9.58203 68.1777 9.13314 68.3372 8.74121 68.6562C8.35384 68.9707 8.06673 69.3968 7.87988 69.9346V75H7.06641V64.5H7.87988V68.8545ZM14.2988 71.1924C14.2988 70.4814 14.4355 69.8411 14.709 69.2715C14.987 68.7018 15.3766 68.2598 15.8779 67.9453C16.3838 67.6263 16.9557 67.4668 17.5938 67.4668C18.5781 67.4668 19.3757 67.8132 19.9863 68.5059C20.597 69.194 20.9023 70.1077 20.9023 71.2471V71.418C20.9023 72.1335 20.7633 72.7783 20.4854 73.3525C20.2119 73.9222 19.8245 74.362 19.3232 74.6719C18.8219 74.9818 18.25 75.1367 17.6074 75.1367C16.6276 75.1367 15.8301 74.7926 15.2148 74.1045C14.6042 73.4118 14.2988 72.4958 14.2988 71.3564V71.1924ZM15.1191 71.418C15.1191 72.3021 15.347 73.029 15.8027 73.5986C16.263 74.1637 16.8646 74.4463 17.6074 74.4463C18.3457 74.4463 18.9427 74.1637 19.3984 73.5986C19.8587 73.029 20.0889 72.2793 20.0889 71.3496V71.1924C20.0889 70.6273 19.984 70.11 19.7744 69.6406C19.5648 69.1712 19.2708 68.8089 18.8926 68.5537C18.5143 68.2939 18.0814 68.1641 17.5938 68.1641C16.8646 68.1641 16.2699 68.4512 15.8096 69.0254C15.3493 69.5951 15.1191 70.3424 15.1191 71.2676V71.418ZM24.3682 73.2979L24.4912 73.9336L24.6553 73.2637L26.4326 67.6035H27.1299L28.8867 73.2158L29.0781 73.9951L29.2354 73.2773L30.7529 67.6035H31.6006L29.4473 75H28.75L26.8496 69.1348L26.7607 68.7314L26.6719 69.1416L24.8057 75H24.1084L21.9619 67.6035H22.8027L24.3682 73.2979ZM37.3018 67.6035L37.3291 68.8066C37.6025 68.36 37.9443 68.0251 38.3545 67.8018C38.7646 67.5785 39.2204 67.4668 39.7217 67.4668C40.8883 67.4668 41.6289 67.9453 41.9434 68.9023C42.2077 68.4421 42.5609 68.0889 43.0029 67.8428C43.445 67.5921 43.9326 67.4668 44.4658 67.4668C46.0518 67.4668 46.8607 68.3327 46.8926 70.0645V75H46.0723V70.126C46.0677 69.4652 45.9242 68.9753 45.6416 68.6562C45.3636 68.3372 44.9079 68.1777 44.2744 68.1777C43.6865 68.1868 43.1898 68.3783 42.7842 68.752C42.3786 69.1211 42.153 69.5723 42.1074 70.1055V75H41.2871V70.0645C41.2826 69.431 41.1322 68.9593 40.8359 68.6494C40.5443 68.335 40.0931 68.1777 39.4824 68.1777C38.9674 68.1777 38.5254 68.3258 38.1562 68.6221C37.7871 68.9137 37.5137 69.349 37.3359 69.9277V75H36.5156V67.6035H37.3018ZM53.7285 74.0635C53.2363 74.779 52.4502 75.1367 51.3701 75.1367C50.5817 75.1367 49.9824 74.9089 49.5723 74.4531C49.1621 73.9928 48.9525 73.3138 48.9434 72.416V67.6035H49.7568V72.3135C49.7568 73.7217 50.3265 74.4258 51.4658 74.4258C52.6507 74.4258 53.4004 73.9359 53.7148 72.9561V67.6035H54.5352V75H53.7422L53.7285 74.0635ZM59.4023 74.4463C59.972 74.4463 60.4482 74.2868 60.8311 73.9678C61.2184 73.6442 61.4281 73.2272 61.46 72.7168H62.2461C62.2233 73.168 62.082 73.5804 61.8223 73.9541C61.5625 74.3232 61.2161 74.6126 60.7832 74.8223C60.3548 75.0319 59.8945 75.1367 59.4023 75.1367C58.4316 75.1367 57.6615 74.7995 57.0918 74.125C56.5267 73.4505 56.2441 72.5436 56.2441 71.4043V71.1582C56.2441 70.429 56.3717 69.7842 56.627 69.2236C56.8822 68.6631 57.2467 68.2301 57.7207 67.9248C58.1992 67.6195 58.7575 67.4668 59.3955 67.4668C60.2067 67.4668 60.8743 67.7083 61.3984 68.1914C61.9271 68.6745 62.2096 69.3102 62.2461 70.0986H61.46C61.4235 69.5199 61.2139 69.0527 60.8311 68.6973C60.4528 68.3418 59.9743 68.1641 59.3955 68.1641C58.6572 68.1641 58.083 68.4307 57.6729 68.9639C57.2673 69.4971 57.0645 70.2445 57.0645 71.2061V71.4453C57.0645 72.3887 57.2673 73.1247 57.6729 73.6533C58.083 74.182 58.6595 74.4463 59.4023 74.4463ZM64.7002 68.8545C64.9691 68.4124 65.3132 68.0706 65.7324 67.8291C66.1517 67.5876 66.6097 67.4668 67.1064 67.4668C67.8994 67.4668 68.4896 67.6901 68.877 68.1367C69.2643 68.5833 69.4603 69.2533 69.4648 70.1465V75H68.6514V70.1396C68.6468 69.4788 68.5055 68.9867 68.2275 68.6631C67.9541 68.3395 67.5143 68.1777 66.9082 68.1777C66.4023 68.1777 65.9535 68.3372 65.5615 68.6562C65.1742 68.9707 64.887 69.3968 64.7002 69.9346V75H63.8867V64.5H64.7002V68.8545ZM75.5625 75V68.2734H74.3389V67.6035H75.5625V66.708C75.5625 65.9515 75.7539 65.3704 76.1367 64.9648C76.5241 64.5592 77.0618 64.3564 77.75 64.3564C78.0599 64.3564 78.3493 64.3952 78.6182 64.4727L78.5566 65.1562C78.3288 65.1016 78.0804 65.0742 77.8115 65.0742C77.3604 65.0742 77.0094 65.2155 76.7588 65.498C76.5081 65.776 76.3828 66.1725 76.3828 66.6875V67.6035H78.1465V68.2734H76.3828V75H75.5625ZM79.1582 71.1924C79.1582 70.4814 79.2949 69.8411 79.5684 69.2715C79.8464 68.7018 80.236 68.2598 80.7373 67.9453C81.2432 67.6263 81.8151 67.4668 82.4531 67.4668C83.4375 67.4668 84.235 67.8132 84.8457 68.5059C85.4564 69.194 85.7617 70.1077 85.7617 71.2471V71.418C85.7617 72.1335 85.6227 72.7783 85.3447 73.3525C85.0713 73.9222 84.6839 74.362 84.1826 74.6719C83.6813 74.9818 83.1094 75.1367 82.4668 75.1367C81.487 75.1367 80.6895 74.7926 80.0742 74.1045C79.4635 73.4118 79.1582 72.4958 79.1582 71.3564V71.1924ZM79.9785 71.418C79.9785 72.3021 80.2064 73.029 80.6621 73.5986C81.1224 74.1637 81.724 74.4463 82.4668 74.4463C83.2051 74.4463 83.8021 74.1637 84.2578 73.5986C84.7181 73.029 84.9482 72.2793 84.9482 71.3496V71.1924C84.9482 70.6273 84.8434 70.11 84.6338 69.6406C84.4242 69.1712 84.1302 68.8089 83.752 68.5537C83.3737 68.2939 82.9408 68.1641 82.4531 68.1641C81.724 68.1641 81.1292 68.4512 80.6689 69.0254C80.2087 69.5951 79.9785 70.3424 79.9785 71.2676V71.418ZM90.875 68.3008C90.7018 68.2689 90.5173 68.2529 90.3213 68.2529C89.8109 68.2529 89.3779 68.3965 89.0225 68.6836C88.6715 68.9661 88.4209 69.3786 88.2705 69.9209V75H87.457V67.6035H88.2568L88.2705 68.7793C88.7035 67.9043 89.3984 67.4668 90.3555 67.4668C90.5833 67.4668 90.7633 67.4964 90.8955 67.5557L90.875 68.3008ZM98.3125 74.4463C98.8822 74.4463 99.3584 74.2868 99.7412 73.9678C100.129 73.6442 100.338 73.2272 100.37 72.7168H101.156C101.133 73.168 100.992 73.5804 100.732 73.9541C100.473 74.3232 100.126 74.6126 99.6934 74.8223C99.265 75.0319 98.8047 75.1367 98.3125 75.1367C97.3418 75.1367 96.5716 74.7995 96.002 74.125C95.4368 73.4505 95.1543 72.5436 95.1543 71.4043V71.1582C95.1543 70.429 95.2819 69.7842 95.5371 69.2236C95.7923 68.6631 96.1569 68.2301 96.6309 67.9248C97.1094 67.6195 97.6676 67.4668 98.3057 67.4668C99.1169 67.4668 99.7845 67.7083 100.309 68.1914C100.837 68.6745 101.12 69.3102 101.156 70.0986H100.37C100.334 69.5199 100.124 69.0527 99.7412 68.6973C99.363 68.3418 98.8844 68.1641 98.3057 68.1641C97.5674 68.1641 96.9932 68.4307 96.583 68.9639C96.1774 69.4971 95.9746 70.2445 95.9746 71.2061V71.4453C95.9746 72.3887 96.1774 73.1247 96.583 73.6533C96.9932 74.182 97.5697 74.4463 98.3125 74.4463ZM102.346 71.1924C102.346 70.4814 102.482 69.8411 102.756 69.2715C103.034 68.7018 103.424 68.2598 103.925 67.9453C104.431 67.6263 105.003 67.4668 105.641 67.4668C106.625 67.4668 107.423 67.8132 108.033 68.5059C108.644 69.194 108.949 70.1077 108.949 71.2471V71.418C108.949 72.1335 108.81 72.7783 108.532 73.3525C108.259 73.9222 107.871 74.362 107.37 74.6719C106.869 74.9818 106.297 75.1367 105.654 75.1367C104.674 75.1367 103.877 74.7926 103.262 74.1045C102.651 73.4118 102.346 72.4958 102.346 71.3564V71.1924ZM103.166 71.418C103.166 72.3021 103.394 73.029 103.85 73.5986C104.31 74.1637 104.911 74.4463 105.654 74.4463C106.393 74.4463 106.99 74.1637 107.445 73.5986C107.906 73.029 108.136 72.2793 108.136 71.3496V71.1924C108.136 70.6273 108.031 70.11 107.821 69.6406C107.612 69.1712 107.318 68.8089 106.939 68.5537C106.561 68.2939 106.128 68.1641 105.641 68.1641C104.911 68.1641 104.317 68.4512 103.856 69.0254C103.396 69.5951 103.166 70.3424 103.166 71.2676V71.418ZM111.561 75H110.74V67.6035H111.561V75ZM110.597 65.4639C110.597 65.3089 110.647 65.179 110.747 65.0742C110.847 64.9648 110.984 64.9102 111.157 64.9102C111.33 64.9102 111.467 64.9648 111.567 65.0742C111.672 65.179 111.725 65.3089 111.725 65.4639C111.725 65.6188 111.672 65.7487 111.567 65.8535C111.467 65.9583 111.33 66.0107 111.157 66.0107C110.984 66.0107 110.847 65.9583 110.747 65.8535C110.647 65.7487 110.597 65.6188 110.597 65.4639ZM114.568 67.6035L114.596 68.8682C114.874 68.4124 115.22 68.0661 115.635 67.8291C116.049 67.5876 116.507 67.4668 117.009 67.4668C117.802 67.4668 118.392 67.6901 118.779 68.1367C119.167 68.5833 119.363 69.2533 119.367 70.1465V75H118.554V70.1396C118.549 69.4788 118.408 68.9867 118.13 68.6631C117.856 68.3395 117.417 68.1777 116.811 68.1777C116.305 68.1777 115.856 68.3372 115.464 68.6562C115.076 68.9707 114.789 69.3968 114.603 69.9346V75H113.789V67.6035H114.568ZM122.99 72.2383C122.999 71.7005 123.072 71.2676 123.209 70.9395C123.346 70.6113 123.64 70.2262 124.091 69.7842C124.542 69.3376 124.831 69.0231 124.959 68.8408C125.091 68.654 125.191 68.4512 125.26 68.2324C125.333 68.0091 125.369 67.7562 125.369 67.4736C125.369 66.904 125.216 66.4574 124.911 66.1338C124.61 65.8057 124.189 65.6416 123.646 65.6416C123.1 65.6416 122.658 65.7988 122.32 66.1133C121.988 66.4232 121.817 66.8447 121.808 67.3779H120.994C121.003 66.6305 121.256 66.0335 121.753 65.5869C122.25 65.1357 122.881 64.9102 123.646 64.9102C124.43 64.9102 125.048 65.1403 125.499 65.6006C125.955 66.0563 126.183 66.6761 126.183 67.46C126.183 67.9521 126.071 68.4147 125.848 68.8477C125.624 69.276 125.201 69.7773 124.576 70.3516C124.061 70.7845 123.804 71.4134 123.804 72.2383H122.99ZM122.881 74.5215C122.881 74.3665 122.929 74.2367 123.024 74.1318C123.125 74.0225 123.264 73.9678 123.441 73.9678C123.615 73.9678 123.751 74.0225 123.852 74.1318C123.956 74.2367 124.009 74.3665 124.009 74.5215C124.009 74.6719 123.956 74.7995 123.852 74.9043C123.751 75.0046 123.615 75.0547 123.441 75.0547C123.264 75.0547 123.125 75.0046 123.024 74.9043C122.929 74.7995 122.881 74.6719 122.881 74.5215Z" fill="#1D3557"/>
</svg>
